<?xml version="1.0"?>
<svg xmlns="http://www.w3.org/2000/svg" xmlns:xlink="http://www.w3.org/1999/xlink" version="1.1" id="Capa_1" x="0px" y="0px" viewBox="0 0 480 480" style="enable-background:new 0 0 480 480;" xml:space="preserve" width="512px" height="512px" class=""><g transform="matrix(0.0676108 0 0 0.0676108 223.773 223.773)"><g>
	<path style="fill:#BA240F;" d="M248,382.584c8.608-2.8,15.736-9.928,19.928-19.456c-6.168,2.256-12.864,3.8-19.928,4.464V382.584z" data-original="#BA240F"/>
	<path style="fill:#BA240F;" d="M232,382.584v-15c-7.072-0.664-13.768-2.208-19.928-4.464   C216.264,372.648,223.392,379.784,232,382.584z" data-original="#BA240F"/>
	<path style="fill:#BA240F;" d="M240,320c9.768,0,16-4.736,16-8s-6.232-8-16-8s-16,4.736-16,8S230.232,320,240,320z" data-original="#BA240F"/>
</g><g>
	<path style="fill:#59B9B9;" d="M355.408,432H124.592H112c-8.824,0-16,7.176-16,16s7.176,16,16,16h256c8.824,0,16-7.176,16-16   s-7.176-16-16-16H355.408z" data-original="#59B9B9" class=""/>
	<circle style="fill:#59B9B9;" cx="296" cy="248" r="8" data-original="#59B9B9" class=""/>
	<path style="fill:#59B9B9;" d="M240,16C120.896,16,24,112.896,24,232c0,74.512,37.264,142.096,99.888,182.048   c-33.816-94.024-43.52-195.712-27.928-294.424l1.544-9.8c3.536-22.44,21.608-33.632,37.936-34.768   c16.368-1.072,35.768,7.448,42.384,29.176L189.928,144h100.144l12.104-39.76c6.616-21.736,25.96-30.28,42.384-29.176   c16.328,1.136,34.4,12.328,37.936,34.768l1.544,9.8c15.592,98.712,5.896,200.4-27.928,294.424C418.736,374.096,456,306.512,456,232   C456,112.896,359.104,16,240,16z M255.336,48.632C250.248,48.208,245.088,48,240,48V32c5.52,0,11.136,0.232,16.664,0.696   L255.336,48.632z M316.656,64.736c-14.624-6.728-30.096-11.504-45.992-14.176l2.672-15.784c17.28,2.92,34.104,8.112,50.008,15.432   L316.656,64.736z" data-original="#59B9B9" class=""/>
</g><path style="fill:#E88838;" d="M338.424,416l1.184-3.2c34.136-92.648,44.032-193.168,28.64-290.672l-1.544-9.8  c-2.32-14.696-13.976-20.664-23.248-21.304c-9.376-0.584-21.632,3.656-25.96,17.872l-13.832,45.432  C302.624,157.696,299.52,160,296,160H184c-3.52,0-6.624-2.304-7.656-5.672l-13.832-45.432c-4.328-14.216-16.6-18.464-25.96-17.872  c-9.272,0.64-20.928,6.608-23.248,21.304l-1.544,9.8c-15.392,97.504-5.496,198.024,28.64,290.672l1.184,3.2H338.424z   M287.44,352.104C284.056,379.144,264.104,400,240,400s-44.056-20.856-47.44-47.896C182.304,343.592,176,332.352,176,320h16  c0,17.344,21.984,32,48,32s48-14.656,48-32h16C304,332.352,297.696,343.592,287.44,352.104z M296,224c13.232,0,24,10.768,24,24  s-10.768,24-24,24s-24-10.768-24-24S282.768,224,296,224z M240,288c17.944,0,32,10.536,32,24s-14.056,24-32,24s-32-10.536-32-24  S222.056,288,240,288z M184,224c13.232,0,24,10.768,24,24s-10.768,24-24,24s-24-10.768-24-24S170.768,224,184,224z" data-original="#E88838" class=""/><circle style="fill:#59B9B9;" cx="184" cy="248" r="8" data-original="#59B9B9" class=""/><g>
	<path style="fill:#0D0A3F" d="M472,232C472,104.08,367.92,0,240,0S8,104.08,8,232c0,74.36,34.584,142.264,93.416,185.944   C88.984,422.336,80,434.08,80,448c0,17.648,14.352,32,32,32h256c17.648,0,32-14.352,32-32c0-13.92-8.984-25.664-21.416-30.056   C437.416,374.264,472,306.36,472,232z M339.6,412.8l-1.176,3.2H141.576l-1.184-3.2c-34.136-92.648-44.032-193.168-28.64-290.672   l1.544-9.8c2.32-14.696,13.976-20.664,23.248-21.304c9.36-0.584,21.632,3.656,25.96,17.872l13.832,45.432   c1.04,3.368,4.144,5.672,7.664,5.672h112c3.52,0,6.624-2.304,7.656-5.672l13.832-45.432c4.328-14.216,16.584-18.464,25.96-17.872   c9.272,0.64,20.928,6.608,23.248,21.304l1.544,9.8C383.632,219.632,373.736,320.152,339.6,412.8z M384,448c0,8.824-7.176,16-16,16   H112c-8.824,0-16-7.176-16-16s7.176-16,16-16h12.592h230.816H368C376.824,432,384,439.176,384,448z M356.112,414.048   c33.816-94.024,43.52-195.712,27.928-294.424l-1.544-9.8c-3.536-22.44-21.608-33.632-37.936-34.768   c-16.424-1.104-35.768,7.448-42.384,29.176L290.072,144H189.928l-12.104-39.76c-6.616-21.736-26.016-30.248-42.384-29.176   c-16.328,1.136-34.4,12.328-37.936,34.768l-1.544,9.8c-15.592,98.712-5.896,200.4,27.928,294.424C61.264,374.096,24,306.512,24,232   c0-119.104,96.896-216,216-216s216,96.896,216,216C456,306.512,418.736,374.096,356.112,414.048z" data-original="#0D0A3F" class="active-path"/>
	<path style="fill:#0D0A3F" d="M240,336c17.944,0,32-10.536,32-24s-14.056-24-32-24s-32,10.536-32,24S222.056,336,240,336z    M240,304c9.768,0,16,4.736,16,8s-6.232,8-16,8s-16-4.736-16-8S230.232,304,240,304z" data-original="#0D0A3F" class="active-path"/>
	<path style="fill:#0D0A3F" d="M240,352c-26.016,0-48-14.656-48-32h-16c0,12.352,6.304,23.592,16.56,32.104   C195.944,379.144,215.896,400,240,400s44.056-20.856,47.44-47.896C297.696,343.592,304,332.352,304,320h-16   C288,337.344,266.016,352,240,352z M212.072,363.12c6.168,2.256,12.864,3.8,19.928,4.464v15   C223.392,379.784,216.264,372.648,212.072,363.12z M248,382.584v-15c7.072-0.664,13.768-2.208,19.928-4.464   C263.736,372.648,256.608,379.784,248,382.584z" data-original="#0D0A3F" class="active-path"/>
	<path style="fill:#0D0A3F" d="M208,248c0-13.232-10.768-24-24-24s-24,10.768-24,24s10.768,24,24,24S208,261.232,208,248z M176,248   c0-4.416,3.584-8,8-8s8,3.584,8,8s-3.584,8-8,8S176,252.416,176,248z" data-original="#0D0A3F" class="active-path"/>
	<path style="fill:#0D0A3F" d="M296,224c-13.232,0-24,10.768-24,24s10.768,24,24,24s24-10.768,24-24S309.232,224,296,224z M296,256   c-4.416,0-8-3.584-8-8s3.584-8,8-8s8,3.584,8,8S300.416,256,296,256z" data-original="#0D0A3F" class="active-path"/>
	<path style="fill:#0D0A3F" d="M270.664,50.552c15.896,2.68,31.368,7.456,45.992,14.176l6.688-14.528   c-15.904-7.32-32.728-12.504-50.008-15.432L270.664,50.552z" data-original="#0D0A3F" class="active-path"/>
	<path style="fill:#0D0A3F" d="M240,48c5.088,0,10.248,0.208,15.336,0.632l1.328-15.936C251.136,32.232,245.52,32,240,32V48z" data-original="#0D0A3F" class="active-path"/>
</g></g> </svg>
